<?xml version="1.0" encoding="UTF-8"?>
<svg version="1.1" xmlns="http://www.w3.org/2000/svg" width="1024" height="1024">
<path d="M0 0 C0.99 0.99 0.99 0.99 2 2 C0.98292969 3.20269531 0.98292969 3.20269531 -0.0546875 4.4296875 C-15.45126968 23.05606855 -24.009454 43.26675276 -28 67 C-28.97888184 67.09704224 -28.97888184 67.09704224 -29.97753906 67.19604492 C-58.24144176 70.07935899 -91.99055001 75.7531551 -113 97 C-113.73863281 97.42539063 -114.47726562 97.85078125 -115.23828125 98.2890625 C-139.33190327 113.2155214 -155.71528476 143.47203254 -163 170 C-163 171.32 -163 172.64 -163 174 C-163.66 174 -164.32 174 -165 174 C-165.06002547 174.6103114 -165.12005095 175.22062279 -165.18189538 175.84942847 C-165.60726609 180.14305233 -166.0444742 184.43406253 -166.527174 188.7216444 C-167.99678752 202.22183466 -168.27378579 215.56964301 -168.22705078 229.13989258 C-168.22648504 231.47793574 -168.22680641 233.81597926 -168.22793579 236.15402222 C-168.22850393 242.43153607 -168.21683797 248.70897174 -168.20278788 254.9864676 C-168.19147019 260.90325613 -168.18953371 266.82004208 -168.18748413 272.73683997 C-168.18313156 284.43842541 -168.16988949 296.13998259 -168.15087891 307.84155273 C-168.1324564 319.19311382 -168.11833129 330.54466717 -168.10986328 341.89624023 C-168.10933783 342.59864099 -168.10881239 343.30104175 -168.10827102 344.02472738 C-168.10566051 347.5492689 -168.1031332 351.07381047 -168.10064721 354.59835207 C-168.07999083 383.73225305 -168.04468167 412.86612615 -168 442 C-167.34 442.33 -166.68 442.66 -166 443 C-166.66 443 -167.32 443 -168 443 C-168 444.98 -168 446.96 -168 449 C-167.34 449.33 -166.68 449.66 -166 450 C-178.818539 457.93066176 -191.782732 465.5881575 -204.81982422 473.15332031 C-210.28003073 476.32397915 -215.73354871 479.50609777 -221.1875 482.6875 C-222.19699707 483.27571533 -223.20649414 483.86393066 -224.24658203 484.4699707 C-225.19001465 485.01999756 -226.13344727 485.57002441 -227.10546875 486.13671875 C-227.93199951 486.61842529 -228.75853027 487.10013184 -229.61010742 487.59643555 C-232.08294516 489.04871302 -234.54320004 490.52078062 -237 492 C-238.10588414 488.68234758 -238.12307131 486.23206761 -238.12025452 482.73706055 C-238.12162918 481.424664 -238.12300385 480.11226746 -238.12442017 478.76010132 C-238.12088093 477.3023069 -238.11724612 475.84451271 -238.11352539 474.38671875 C-238.11324336 472.85421755 -238.11340156 471.32171621 -238.1139679 469.78921509 C-238.11425534 465.6240231 -238.10836648 461.45885978 -238.10139394 457.29367447 C-238.09514842 452.93886714 -238.09455554 448.58405917 -238.09336853 444.22924805 C-238.09025754 435.97745356 -238.08204836 427.72567229 -238.07201904 419.47388363 C-238.06086258 410.09276386 -238.05534667 400.71164347 -238.05032361 391.33051872 C-238.04029426 372.81936333 -238.02381444 354.30821936 -238.00279331 335.79707336 C-237.99911861 332.11742187 -238.00334949 328.43790637 -238.01345825 324.75827026 C-238.0539894 309.51411071 -238.08419131 294.269971 -238.10362434 279.02577019 C-238.11387296 271.19879825 -238.12781816 263.37186742 -238.15087891 255.54492188 C-238.1710344 248.70047573 -238.1837674 241.8560594 -238.18817699 235.0115844 C-238.19074631 231.40188965 -238.19662422 227.79228027 -238.21146011 224.18261337 C-238.26525368 210.52262371 -238.19318988 196.91228371 -237.13232422 183.28564453 C-237.05723192 182.31443098 -236.98213963 181.34321743 -236.9047718 180.34257317 C-235.96191602 169.68444624 -233.63533207 159.35167921 -231 149 C-230.72397949 147.87271484 -230.72397949 147.87271484 -230.44238281 146.72265625 C-222.94696251 116.51929903 -206.80129483 89.10302231 -185.47265625 66.6484375 C-183.70205014 64.75195892 -182.04120456 62.86595556 -180.40234375 60.86328125 C-178.50787745 58.60532385 -176.73377948 56.70613579 -174.5 54.8125 C-173.81679688 54.23113281 -173.13359375 53.64976562 -172.4296875 53.05078125 C-171.62789063 52.37402344 -170.82609375 51.69726562 -170 51 C-168.98105065 50.11932215 -167.96287244 49.2377516 -166.9453125 48.35546875 C-160.54739272 42.83449864 -154.09586532 37.6150208 -147 33 C-146.06285156 32.38898438 -145.12570312 31.77796875 -144.16015625 31.1484375 C-125.78238249 19.51458828 -100.4518278 4 -78 4 C-78 3.34 -78 2.68 -78 2 C-77.41226807 1.94593994 -76.82453613 1.89187988 -76.21899414 1.83618164 C-71.60871837 1.39566923 -67.02079663 0.88518269 -62.43359375 0.24609375 C-41.92364817 -2.56383883 -20.48286793 -3.98346291 0 0 Z " fill="#70C245" transform="translate(614,150)"/>
<path d="M0 0 C1.41539062 0.7892688 1.41539062 0.7892688 2.859375 1.59448242 C3.90915527 2.1698877 4.95893555 2.74529297 6.04052734 3.33813477 C7.09449707 3.95253418 8.1484668 4.56693359 9.234375 5.19995117 C10.66644287 6.0268042 10.66644287 6.0268042 12.12744141 6.87036133 C15.0570426 8.59641793 17.96006008 10.36103053 20.859375 12.13745117 C27.72700261 16.31473292 34.60768511 20.44534156 41.6015625 24.40698242 C42.20175201 24.7479747 42.80194153 25.08896698 43.4203186 25.44029236 C46.33095825 27.09280034 49.2463022 28.73508669 52.17041016 30.36376953 C53.21245605 30.95424072 54.25450195 31.54471191 55.328125 32.15307617 C56.71547852 32.92893066 56.71547852 32.92893066 58.13085938 33.72045898 C60.234375 35.19995117 60.234375 35.19995117 61.234375 38.19995117 C59.76291016 39.01786133 59.76291016 39.01786133 58.26171875 39.85229492 C51.15687438 43.81628362 44.08739554 47.82846646 37.109375 52.01245117 C36.50730225 52.37266357 35.90522949 52.73287598 35.28491211 53.10400391 C32.44441719 54.81719851 29.66063212 56.58073801 26.9296875 58.46166992 C24.234375 60.19995117 24.234375 60.19995117 22.234375 60.19995117 C21.904375 60.85995117 21.574375 61.51995117 21.234375 62.19995117 C19.72490626 63.10980881 18.17454864 63.95216216 16.609375 64.76245117 C11.98507959 67.22396242 7.46656396 69.80472901 2.984375 72.51245117 C2.02168701 73.09349609 2.02168701 73.09349609 1.03955078 73.6862793 C-0.26699369 74.47599549 -1.573147 75.26635921 -2.87890625 76.05737305 C-12.86620172 82.10557993 -22.90558067 88.06508255 -32.953125 94.01245117 C-44.24951184 100.69935153 -55.51771412 107.43180771 -66.765625 114.19995117 C-77.18113756 120.46678832 -87.60914813 126.71023308 -98.078125 132.88745117 C-115.86511014 143.33502996 -115.86511014 143.33502996 -133.2890625 154.37084961 C-135.77982391 156.00135397 -137.92409407 157.2527742 -140.765625 158.19995117 C-142.35209822 159.139779 -143.91316227 160.12320841 -145.453125 161.13745117 C-146.26136719 161.66209961 -147.06960938 162.18674805 -147.90234375 162.72729492 C-148.51722656 163.21327148 -149.13210938 163.69924805 -149.765625 164.19995117 C-149.765625 164.85995117 -149.765625 165.51995117 -149.765625 166.19995117 C-150.59964844 166.27600586 -151.43367188 166.35206055 -152.29296875 166.43041992 C-156.58942735 167.38250355 -159.62202022 169.21030712 -163.328125 171.51245117 C-164.8417521 172.42506456 -166.35610881 173.33646864 -167.87109375 174.24682617 C-168.66692871 174.72829102 -169.46276367 175.20975586 -170.28271484 175.70581055 C-204.87632034 196.52320147 -238.90913564 210.21523768 -279.765625 212.19995117 C-281.50199219 212.28889648 -281.50199219 212.28889648 -283.2734375 212.37963867 C-330.76496793 213.4727941 -380.15178954 195.41382149 -415.765625 164.19995117 C-417.59515386 162.73684784 -419.42848388 161.2784847 -421.265625 159.82495117 C-431.24461039 151.65771241 -439.87213416 142.38556277 -447.765625 132.19995117 C-448.52746094 131.23186523 -449.28929687 130.2637793 -450.07421875 129.26635742 C-454.72675015 123.23297354 -458.72238621 117.10237732 -462.35546875 110.40307617 C-462.82082031 109.67604492 -463.28617188 108.94901367 -463.765625 108.19995117 C-464.425625 108.19995117 -465.085625 108.19995117 -465.765625 108.19995117 C-465.848125 107.56057617 -465.930625 106.92120117 -466.015625 106.26245117 C-467.06082872 101.994536 -468.90654326 98.1688745 -470.765625 94.19995117 C-469.486875 94.34432617 -468.208125 94.48870117 -466.890625 94.63745117 C-461.79250332 95.14069923 -456.69062118 95.50770672 -451.578125 95.82495117 C-450.81838379 95.87707764 -450.05864258 95.9292041 -449.27587891 95.98291016 C-443.53916395 96.31856236 -438.27226305 96.03549719 -432.765625 94.19995117 C-431.35017358 94.09803867 -429.93313429 94.01745161 -428.515625 93.94995117 C-418.69010106 93.02925786 -408.82246649 89.35978351 -400.5 84.11791992 C-398.765625 83.19995117 -398.765625 83.19995117 -395.765625 83.19995117 C-393.92578125 85.58666992 -393.92578125 85.58666992 -391.828125 88.88745117 C-374.30037121 115.35607457 -346.22512942 133.23857806 -315.765625 141.19995117 C-312.73702781 141.71623553 -309.83546953 141.99182612 -306.765625 142.19995117 C-305.775625 142.52995117 -304.785625 142.85995117 -303.765625 143.19995117 C-285.01151815 147.70593899 -261.91315115 144.69042139 -243.765625 139.19995117 C-243.03537109 138.98064941 -242.30511719 138.76134766 -241.55273438 138.53540039 C-226.28939018 133.76113504 -212.22017972 125.57608383 -198.80444336 117.01025391 C-193.88702388 113.87282994 -188.88909748 110.91202197 -183.828125 108.01245117 C-168.57718071 99.26050683 -153.51057242 90.18275729 -138.5703125 80.91088867 C-134.46915988 78.40907133 -130.30316562 76.02265642 -126.12890625 73.64526367 C-123.68993786 72.28047445 -123.68993786 72.28047445 -121.765625 70.19995117 C-120.20530489 69.29633145 -118.62180663 68.43248802 -117.02734375 67.59057617 C-110.73379367 64.20798566 -104.55440859 60.64855915 -98.40014648 57.02124023 C-97.16769742 56.29660048 -95.93325927 55.57533482 -94.69702148 54.85717773 C-92.8888013 53.80664971 -91.08642579 52.7467168 -89.28515625 51.68432617 C-88.22401611 51.06267578 -87.16287598 50.44102539 -86.06958008 49.80053711 C-85.3092749 49.27234375 -84.54896973 48.74415039 -83.765625 48.19995117 C-83.765625 47.53995117 -83.765625 46.87995117 -83.765625 46.19995117 C-83.03005371 46.08458008 -82.29448242 45.96920898 -81.53662109 45.8503418 C-78.72286175 45.18991405 -76.87905445 44.29913885 -74.4296875 42.79370117 C-73.62080078 42.30192383 -72.81191406 41.81014648 -71.97851562 41.3034668 C-71.12451172 40.77430664 -70.27050781 40.24514648 -69.390625 39.69995117 C-67.58075843 38.59573655 -65.77086238 37.49157022 -63.9609375 36.38745117 C-63.0730957 35.84217773 -62.18525391 35.2969043 -61.27050781 34.73510742 C-57.949516 32.69978613 -54.60926254 30.69775715 -51.265625 28.69995117 C-50.07407326 27.98534997 -48.88267072 27.27049992 -47.69140625 26.55541992 C-41.32421875 22.73510742 -34.95703125 18.91479492 -28.58984375 15.09448242 C-27.80222656 14.62059082 -27.01460937 14.14669922 -26.203125 13.65844727 C-24.51505412 12.64837761 -22.82197949 11.64664128 -21.125 10.65161133 C-16.60797622 7.98955404 -12.4973885 5.21941338 -8.390625 1.94995117 C-3.62774249 -1.04944493 -3.62774249 -1.04944493 0 0 Z " fill="#2BA7E2" transform="translate(603.765625,537.800048828125)"/>
<path d="M0 0 C3.7422205 1.4626477 7.14003962 3.11687037 10.625 5.125 C11.20854248 5.46063965 11.79208496 5.7962793 12.39331055 6.14208984 C17.74508518 9.23682035 23.05146479 12.40760567 28.36279297 15.57104492 C29.51266726 16.25574373 30.66257001 16.94039474 31.8125 17.625 C32.39098694 17.96947174 32.96947388 18.31394348 33.56549072 18.66885376 C43.00825752 24.28588282 52.54135589 29.72001715 62.14355469 35.06103516 C71.49502181 40.2630675 80.76011807 45.60280481 90 51 C92.84892108 52.66323115 95.69787429 54.32640721 98.546875 55.98950195 C100.56008432 57.16479764 102.57310468 58.34041706 104.5859375 59.51635742 C112.22821608 63.9773917 119.89260699 68.39915359 127.5625 72.8125 C134.73726658 76.94345777 141.89278863 81.09469026 148.97558594 85.3815918 C164.91692884 95.0082503 181.05540119 104.32280037 197.1875 113.625 C198.24171143 114.23335693 199.29592285 114.84171387 200.38208008 115.46850586 C205.83506161 118.61184213 211.29648461 121.7393803 216.76953125 124.84765625 C229.51440512 132.10521773 242.01442674 139.53625396 254 148 C254.5578418 148.39348633 255.11568359 148.78697266 255.69042969 149.19238281 C267.63981021 157.70659287 278.53230302 167.36732206 288.9375 177.6875 C289.98393677 178.72003906 289.98393677 178.72003906 291.05151367 179.7734375 C297.31290288 186.0730745 302.6768501 192.92207617 307.6875 200.25 C309.40996434 202.74948714 311.1006506 205.11895071 313.0625 207.4375 C340.47524139 243.69306119 349.46786623 298.12873877 343.75 342.0625 C343.21962183 345.71823161 342.62417003 349.35923678 342 353 C341.87141602 353.79599609 341.74283203 354.59199219 341.61035156 355.41210938 C337.04533778 383.03450827 325.63331091 409.31082864 311 433 C308.89177117 430.30528289 307.16748125 427.61556298 305.58203125 424.5859375 C305.13577393 423.74659668 304.6895166 422.90725586 304.22973633 422.04248047 C303.76204834 421.16221191 303.29436035 420.28194336 302.8125 419.375 C299.15956616 412.58392212 295.49622382 406.46067693 290.36328125 400.6796875 C289 399 289 399 289 397 C288.34 397 287.68 397 287 397 C285.58984375 395.53125 285.58984375 395.53125 283.9375 393.5 C278.93619746 387.6093445 273.2254642 382.56721414 267 378 C267.68824546 373.95372173 268.92067352 370.29410898 270.3125 366.4375 C274.76601831 353.54342674 277.5955189 339.64684049 278 326 C278.03996094 324.7109375 278.07992188 323.421875 278.12109375 322.09375 C278.67062202 295.10129621 272.82313966 266.94282125 258 244 C257.34 243.34 256.68 242.68 256 242 C255.40445313 240.93394531 254.80890625 239.86789062 254.1953125 238.76953125 C252.11436255 235.05437268 249.65768771 231.89882655 246.875 228.6875 C246.3898291 228.12482422 245.9046582 227.56214844 245.40478516 226.98242188 C238.42578939 218.9687428 231.09803066 211.87669119 222.6875 205.375 C222.02476074 204.86066406 221.36202148 204.34632813 220.67919922 203.81640625 C214.40653447 199.07779267 207.72360032 195.06065951 201 191 C198.83928999 189.67668501 196.67913205 188.35246816 194.51953125 187.02734375 C180.99507335 178.76935686 167.38552649 170.69721329 153.63671875 162.81640625 C146.52250264 158.73580328 139.44670715 154.59114818 132.375 150.4375 C129.92451551 148.99863602 127.47397875 147.55986107 125.0234375 146.12109375 C124.42714035 145.77094208 123.8308432 145.42079041 123.21647644 145.06002808 C117.48439118 141.69510421 111.74304584 138.34617075 106 135 C96.53735101 129.48555973 87.08635712 123.95147617 77.64025879 118.40875244 C71.3334913 114.70810953 65.02503842 111.01067511 58.703125 107.3359375 C47.31485124 100.71605253 35.98248363 94.01369349 24.7019043 87.21166992 C17.98685763 83.16912925 11.22962475 79.22579143 4.37890625 75.41796875 C2 74 2 74 0 72 C-0.24050903 69.02609253 -0.24050903 69.02609253 -0.22705078 65.16357422 C-0.22734283 64.46102509 -0.22763489 63.75847595 -0.22793579 63.03463745 C-0.22654023 60.70786269 -0.21096872 58.38140646 -0.1953125 56.0546875 C-0.19158317 54.44328995 -0.18873582 52.83189013 -0.18673706 51.2204895 C-0.17909431 46.97566486 -0.15944039 42.7309767 -0.1373291 38.48620605 C-0.11688443 34.1561874 -0.1077383 29.82614674 -0.09765625 25.49609375 C-0.07619504 16.99733314 -0.04205145 8.49868354 0 0 Z " fill="#69399F" transform="translate(472,360)"/>
<path d="M0 0 C0.86625 0.78375 1.7325 1.5675 2.625 2.375 C12.57238483 13.36947797 20.03364212 26.396392 23 41 C23.18304687 41.886875 23.36609375 42.77375 23.5546875 43.6875 C26.67143464 66.87172436 21.40786184 87.83903406 8 107 C5.15842297 110.5018402 2.13813812 113.76415429 -1 117 C-1.53882813 117.61230469 -2.07765625 118.22460938 -2.6328125 118.85546875 C-15.29475575 132.75815518 -35.48326514 141.03338415 -54 142 C-75.8135322 142.91246148 -96.2279078 137.32807148 -113 123 C-113.73863281 122.40574219 -114.47726562 121.81148437 -115.23828125 121.19921875 C-132.90884968 106.4584855 -141.56446328 85.4253192 -144 63 C-145.54637574 40.84726846 -138.44375057 20.95178655 -124.375 4 C-123.67370972 3.15272339 -123.67370972 3.15272339 -122.95825195 2.28833008 C-120.55076247 -0.52005073 -118.50206046 -2.68467213 -115 -4 C-115 -4.66 -115 -5.32 -115 -6 C-113.11516083 -7.52003159 -111.24888531 -8.89398499 -109.25 -10.25 C-108.66742432 -10.64896484 -108.08484863 -11.04792969 -107.48461914 -11.45898438 C-100.91154492 -15.86646619 -93.81259395 -20.32373463 -86 -22 C-85.06027344 -22.2371875 -84.12054687 -22.474375 -83.15234375 -22.71875 C-52.41624514 -30.18803277 -22.58493411 -22.32026691 0 0 Z " fill="#70C245" transform="translate(754,174)"/>
<path d="M0 0 C0.81339844 0.61746094 1.62679687 1.23492188 2.46484375 1.87109375 C15.69089741 12.97771817 23.74395983 31.2550713 25.6875 48.125 C25.80947262 49.74876057 25.91455674 51.37390801 26 53 C26.04125 53.69222656 26.0825 54.38445312 26.125 55.09765625 C26.75248454 76.07917045 19.32692958 96.27456133 5.1875 111.75 C-6.69865439 124.26734258 -20.82196491 133.65829221 -38 137 C-39.37285156 137.27263672 -39.37285156 137.27263672 -40.7734375 137.55078125 C-61.76133212 140.47282469 -82.24423193 135.28029487 -99.6015625 123.1875 C-114.91655768 111.42861825 -126.97162603 94.36032418 -130.73046875 75.1796875 C-131.19393057 71.43169189 -131.11974528 67.77197646 -131 64 C-132.485 64.495 -132.485 64.495 -134 65 C-134 64.34 -134 63.68 -134 63 C-133.34 63 -132.68 63 -132 63 C-132.05220703 61.9790625 -132.05220703 61.9790625 -132.10546875 60.9375 C-132.75139932 37.80703385 -123.92692343 18.37001556 -108.25 1.6875 C-77.7345067 -27.39309549 -31.36187515 -27.59381252 0 0 Z " fill="#693AA0" transform="translate(736,766)"/>
<path d="M0 0 C16.12221726 16.48316242 22.6952153 36.41896041 22.46875 59.20703125 C21.85460649 79.37140977 13.48617826 97.95059093 -1 112 C-19.10758624 128.09290229 -39.55703588 133.44337014 -63.203125 132.21435547 C-84.48803504 130.58305737 -101.71607865 119.01539508 -115.3125 103.1875 C-124.66590829 90.85889116 -130.33237071 75.50061052 -131 60 C-131.05994141 58.87464844 -131.05994141 58.87464844 -131.12109375 57.7265625 C-131.69264494 36.94899577 -124.60939703 17.47724526 -110.39770508 2.30175781 C-96.32063275 -12.09649159 -78.31484456 -20.8840901 -58.0859375 -21.96875 C-35.81971955 -22.19423069 -16.15626429 -15.53867009 0 0 Z " fill="#2BA8E2" transform="translate(211,480)"/>
<path d="M0 0 C6.6752034 -0.02526945 13.35039457 -0.04283268 20.02563477 -0.05493164 C22.29842591 -0.05997325 24.5712138 -0.06680637 26.84399414 -0.07543945 C30.10303551 -0.08751261 33.36203417 -0.09322987 36.62109375 -0.09765625 C37.64400009 -0.10281754 38.66690643 -0.10797882 39.72080994 -0.11329651 C40.66170975 -0.11337204 41.60260956 -0.11344757 42.57202148 -0.11352539 C43.40475082 -0.115746 44.23748016 -0.11796661 45.09544373 -0.12025452 C47 0 47 0 48 1 C49.97230168 1.37180356 51.95330952 1.69800668 53.9375 2 C59.7838765 2.89193825 59.7838765 2.89193825 62 4 C61.88406494 4.60956543 61.76812988 5.21913086 61.64868164 5.84716797 C58.06007801 25.27691897 57.20600169 44.29842471 57 64 C57.66 64 58.32 64 59 64 C58.67 66.31 58.34 68.62 58 71 C57.16484863 70.85997559 56.32969727 70.71995117 55.46923828 70.57568359 C46.55475436 69.17866526 37.90631253 68.61308684 28.875 68.625 C27.86735596 68.62531723 27.86735596 68.62531723 26.83935547 68.62564087 C15.16309781 68.66210325 4.24115724 69.82439917 -7 73 C-8.00256836 73.27287842 -8.00256836 73.27287842 -9.02539062 73.55126953 C-22.73514521 77.37510188 -37.78183351 84.0841534 -49 93 C-49.495 94.485 -49.495 94.485 -50 96 C-50.99 96 -51.98 96 -53 96 C-67.52819962 105.64393354 -80.67354394 121.20479098 -88 137 C-92.15392635 136.45168172 -95.55890698 134.9348992 -99.33032227 133.21875 C-120.26573303 123.75546272 -140.50630237 124.28385958 -163 126 C-151.88051633 102.92241238 -138.92940313 82.40439036 -121 64 C-120.42958984 63.40912598 -119.85917969 62.81825195 -119.27148438 62.20947266 C-112.79755531 55.52151479 -106.3122443 49.10535162 -98.890625 43.453125 C-96.9072595 41.99374973 -96.9072595 41.99374973 -95 40 C-88.30301818 35.45133314 -81.31221578 31.40843494 -74.23828125 27.48046875 C-73.49964844 26.99191406 -72.76101562 26.50335938 -72 26 C-72 25.34 -72 24.68 -72 24 C-71.32582031 23.90847656 -70.65164062 23.81695312 -69.95703125 23.72265625 C-66.97549837 22.99401215 -64.46993258 21.85475521 -61.73852539 20.47412109 C-42.26432383 10.63154761 -21.23968612 5.4878402 0 1 C0 0.67 0 0.34 0 0 Z " fill="#2BA8E2" transform="translate(296,312)"/>
<path d="M0 0 C3.22976048 1.61488024 4.07737433 5.03790315 5.5625 8.1875 C12.05812753 21.49884672 19.98764265 33.08850661 30 44 C30.50015625 44.54543457 31.0003125 45.09086914 31.515625 45.65283203 C55.64466911 71.60221754 88.16284151 86.15010788 123 91 C124.99967231 91.0362028 127.00081037 91.05692835 129 91 C130.75973609 92.75973609 130.34164213 95.16009293 130.54394531 97.52270508 C132.41980457 118.93728324 138.73122104 139.94837715 152.9375 156.5625 C155 159 155 159 155 161 C125.36957108 161.56082831 97.06348011 158.82021255 69 149 C67.89914062 148.62230469 66.79828125 148.24460937 65.6640625 147.85546875 C38.4558972 137.95841119 14.14452003 122.68891901 -7 103 C-8.32937633 101.84957817 -9.66257608 100.70355612 -11 99.5625 C-19.52756863 92.09873269 -27.06995136 83.95395805 -34 75 C-34.7736792 74.01628418 -34.7736792 74.01628418 -35.56298828 73.01269531 C-46.10070062 59.54462866 -54.38937348 45.28866144 -62 30 C-60.81148438 29.55011719 -59.62296875 29.10023438 -58.3984375 28.63671875 C-39.94926825 21.52755347 -22.5550235 12.62328738 -5.359375 2.8984375 C-3.59120455 1.8992156 -1.81656184 0.90828092 0 0 Z " fill="#693AA0" transform="translate(450,731)"/>
<path d="M0 0 C21.06202623 19.50520269 23.75259812 65.07678362 24.90234375 91.609375 C26.35136227 141.91929817 10.25493356 188.84092622 -21 228 C-21.76957031 228.99773437 -22.53914062 229.99546875 -23.33203125 231.0234375 C-24.04746094 231.94382812 -24.76289062 232.86421875 -25.5 233.8125 C-26.1290625 234.62332031 -26.758125 235.43414062 -27.40625 236.26953125 C-27.9321875 236.84058594 -28.458125 237.41164063 -29 238 C-29.66 238 -30.32 238 -31 238 C-31 238.66 -31 239.32 -31 240 C-33 240 -33 240 -35.29296875 237.7890625 C-36.18628906 236.86867188 -37.07960938 235.94828125 -38 235 C-52.78134402 221.73527167 -70.1421991 209.71889587 -88 201 C-86.63909293 196.91727879 -84.08406908 195.38274197 -80.8125 192.71875 C-78.74921094 191.03228876 -78.74921094 191.03228876 -78 188 C-77.01 187.67 -76.02 187.34 -75 187 C-73.19753464 184.89162538 -71.55734968 182.80523799 -69.9375 180.5625 C-69.45506836 179.89653809 -68.97263672 179.23057617 -68.47558594 178.54443359 C-46.19325471 147.08574062 -35.66496368 108.59993291 -42.02636719 70.14453125 C-42.61413599 67.07863983 -43.28151065 64.03775808 -44 61 C-44.33886856 59.33444994 -44.67456922 57.66822771 -45 56 C-44.39414062 55.52691406 -43.78828125 55.05382812 -43.1640625 54.56640625 C-40.42192167 52.40222434 -37.70629665 50.20884294 -35 48 C-34.17371094 47.32582031 -33.34742188 46.65164063 -32.49609375 45.95703125 C-20.94635127 36.0757909 -13.00915159 24.09098626 -5.94287109 10.77099609 C-4.6422071 8.3279571 -3.29057499 5.91431027 -1.9375 3.5 C-1.29119081 2.33359688 -0.64512424 1.16705892 0 0 Z " fill="#70C245" transform="translate(798,268)"/>
<path d="M0 0 C0.33 0 0.66 0 1 0 C1.9257674 13.54758522 2.1381766 27.02991115 2.11352539 40.60595703 C2.11324262 42.81548054 2.11340301 45.02500414 2.1139679 47.23452759 C2.11425236 53.17542936 2.10841279 59.11631055 2.10139394 65.05720758 C2.09510157 71.28715057 2.09455198 77.51709413 2.09336853 83.74703979 C2.09044795 94.85142484 2.08324433 105.95580146 2.07372581 117.06018268 C2.06513581 127.13533617 2.05890475 137.21048815 2.05493164 147.28564453 C2.05466892 147.95000252 2.05440619 148.6143605 2.05413551 149.29885055 C2.05283028 152.63241108 2.05156888 155.96597162 2.05032361 159.29953218 C2.03989828 186.86635997 2.02233251 214.43317946 2 242 C2.66 242.33 3.32 242.66 4 243 C3.34 243 2.68 243 2 243 C2 244.98 2 246.96 2 249 C2.66 249.33 3.32 249.66 4 250 C-8.89446763 257.9776378 -21.92433568 265.70509695 -35.05761719 273.28320312 C-37.15755607 274.50845787 -39.24554991 275.75428015 -41.32519531 277.01367188 C-42.40639648 277.66400391 -43.48759766 278.31433594 -44.6015625 278.984375 C-45.58721191 279.58475586 -46.57286133 280.18513672 -47.58837891 280.80371094 C-48.78213135 281.39587402 -48.78213135 281.39587402 -50 282 C-50.66 281.67 -51.32 281.34 -52 281 C-40.08007552 273.79604564 -28.1077248 266.6914446 -16.04882812 259.72216797 C-10.14534623 256.30799279 -10.14534623 256.30799279 -4.4296875 252.59375 C-2 251 -2 251 0 251 C0 168.17 0 85.34 0 0 Z " fill="#5FA53C" transform="translate(444,350)"/>
<path d="M0 0 C0.66 0 1.32 0 2 0 C1.88406494 0.60956543 1.76812988 1.21913086 1.64868164 1.84716797 C-1.93992199 21.27691897 -2.79399831 40.29842471 -3 60 C-2.34 60 -1.68 60 -1 60 C-1.33 62.31 -1.66 64.62 -2 67 C-4.31 66.67 -6.62 66.34 -9 66 C-9 65.67 -9 65.34 -9 65 C-7.35 65 -5.7 65 -4 65 C-4.165 63.7625 -4.33 62.525 -4.5 61.25 C-6.4495735 40.75080805 -4.31500806 20.07946625 0 0 Z " fill="#2D9BC2" transform="translate(356,316)"/>
<path d="M0 0 C4.4527447 0.61116104 8.34977044 1.76447765 12.5625 3.3125 C18.96189781 5.55569798 25.40424319 7.04765738 32.0625 8.3125 C32.95461182 8.48370361 33.84672363 8.65490723 34.76586914 8.83129883 C39.25565237 9.64773884 43.42133386 10.08058452 48 10 C49.58403524 11.58403524 49.21974935 13.2771638 49.31640625 15.47265625 C49.35830078 16.37177734 49.40019531 17.27089844 49.44335938 18.19726562 C49.48267578 19.14279297 49.52199219 20.08832031 49.5625 21.0625 C49.60568359 22.01189453 49.64886719 22.96128906 49.69335938 23.93945312 C49.79979276 26.29281353 49.90181008 28.64628354 50 31 C47.86897406 27.12676689 47.57243913 23.60188756 47.375 19.25 C47.31699219 18.20392578 47.31699219 18.20392578 47.2578125 17.13671875 C47.16401376 15.42489182 47.08093826 13.71248318 47 12 C45.31003906 12.05027344 45.31003906 12.05027344 43.5859375 12.1015625 C38.7976739 12.09525385 34.30492683 11.33548276 29.625 10.375 C28.76737061 10.2011377 27.90974121 10.02727539 27.02612305 9.84814453 C20.8378915 8.53072694 14.81944793 6.85784056 8.8125 4.875 C8.0405127 4.62153809 7.26852539 4.36807617 6.47314453 4.10693359 C1.13054305 2.2610861 1.13054305 2.2610861 0 0 Z " fill="#532D81" transform="translate(531,812)"/>
<path d="M0 0 C6.6752034 -0.02526945 13.35039457 -0.04283268 20.02563477 -0.05493164 C22.29842591 -0.05997325 24.5712138 -0.06680637 26.84399414 -0.07543945 C30.10303551 -0.08751261 33.36203417 -0.09322987 36.62109375 -0.09765625 C37.64400009 -0.10281754 38.66690643 -0.10797882 39.72080994 -0.11329651 C40.66170975 -0.11337204 41.60260956 -0.11344757 42.57202148 -0.11352539 C43.40475082 -0.115746 44.23748016 -0.11796661 45.09544373 -0.12025452 C47 0 47 0 48 1 C50.01311449 1.39569108 52.03597208 1.74252191 54.0625 2.0625 C55.16722656 2.23910156 56.27195312 2.41570312 57.41015625 2.59765625 C58.26480469 2.73042969 59.11945313 2.86320312 60 3 C60 3.33 60 3.66 60 4 C56.21691484 4.06636992 52.74532367 4.1244637 49.00585938 3.5 C44.16917673 2.79551225 39.35088637 2.8757901 34.47265625 2.90234375 C33.48373886 2.9037587 32.49482147 2.90517365 31.47593689 2.90663147 C28.33809296 2.91219912 25.20032213 2.9247456 22.0625 2.9375 C19.92643333 2.94251918 17.79036553 2.94708136 15.65429688 2.95117188 C10.43617325 2.96215794 5.21809185 2.97886364 0 3 C0 2.01 0 1.02 0 0 Z " fill="#2B98C9" transform="translate(296,312)"/>
<path d="M0 0 C1.102229 0.00080566 2.20445801 0.00161133 3.34008789 0.00244141 C10.16150423 0.05289347 16.9046797 0.32692017 23.6875 1.0625 C24.43161133 1.14089111 25.17572266 1.21928223 25.94238281 1.30004883 C30.98817417 1.92567417 30.98817417 1.92567417 33.25 4.1875 C32.26 4.8475 31.27 5.5075 30.25 6.1875 C30.25 5.5275 30.25 4.8675 30.25 4.1875 C20.21055605 3.03394765 10.15446767 2.86176454 0.0625 2.625 C-1.66993014 2.58170951 -3.40235214 2.53809226 -5.13476562 2.49414062 C-9.33975951 2.38816129 -13.54483857 2.28659867 -17.75 2.1875 C-17.75 1.8575 -17.75 1.5275 -17.75 1.1875 C-11.85580095 -0.08280152 -5.99931944 -0.0045145 0 0 Z " fill="#64AC38" transform="translate(582.75,147.8125)"/>
<path d="M0 0 C0.70382812 0.06058594 1.40765625 0.12117187 2.1328125 0.18359375 C4.25355591 0.36355239 6.37469584 0.53886583 8.49609375 0.7109375 C10.67687505 0.89084588 12.85682332 1.08160222 15.03515625 1.2890625 C27.00298753 2.32716435 38.99767615 2.09189058 51 2 C51.33 1.34 51.66 0.68 52 0 C53.5 1.375 53.5 1.375 55 3 C55 3.66 55 4.32 55 5 C43.53690434 5.21696711 32.18431376 5.0244527 20.75 4.125 C19.71625244 4.04652832 18.68250488 3.96805664 17.61743164 3.88720703 C11.58438391 3.3769858 5.87891141 2.45143249 0 1 C0 0.67 0 0.34 0 0 Z " fill="#542D81" transform="translate(550,887)"/>
<path d="M0 0 C1.98 0.99 3.96 1.98 6 3 C5.34 3.33 4.68 3.66 4 4 C3.01 3.67 2.02 3.34 1 3 C-0.35622245 3.96873032 -1.68441297 4.97676564 -3 6 C-4.6671056 6.69897419 -6.33433973 7.39764456 -8.00244141 8.09423828 C-11.59555316 9.72347864 -14.93400217 11.78371989 -18.3125 13.8125 C-19.05508057 14.25247314 -19.79766113 14.69244629 -20.56274414 15.14575195 C-23.81381763 17.07557898 -27.0460668 19.02861223 -30.2578125 21.0234375 C-31.58425781 21.84714844 -31.58425781 21.84714844 -32.9375 22.6875 C-33.68902344 23.16574219 -34.44054687 23.64398437 -35.21484375 24.13671875 C-35.80394531 24.42160156 -36.39304687 24.70648437 -37 25 C-37.66 24.67 -38.32 24.34 -39 24 C-30.00817371 18.31203451 -20.96919059 12.73479453 -11.76196289 7.40087891 C-7.74124175 5.06319383 -3.84233531 2.62140633 0 0 Z " fill="#2D8FC9" transform="translate(601,537)"/>
<path d="M0 0 C0.33 0 0.66 0 1 0 C1.33 11.88 1.66 23.76 2 36 C-8.125 34.875 -8.125 34.875 -12 34 C-12 33.67 -12 33.34 -12 33 C-7.72412002 32.91615922 -4.23641013 33.15271797 0 34 C0 22.78 0 11.56 0 0 Z " fill="#2FB3EB" transform="translate(350,345)"/>
<path d="M0 0 C0 3 0 3 -1.93359375 5.19140625 C-2.75988281 5.97386719 -3.58617187 6.75632812 -4.4375 7.5625 C-7.63841178 10.46895693 -7.63841178 10.46895693 -10 14 C-9.14148438 14.24492187 -8.28296875 14.48984375 -7.3984375 14.7421875 C-3.70016938 16.11097179 -0.86770282 17.89113806 2.375 20.125 C3.43460938 20.84945313 4.49421875 21.57390625 5.5859375 22.3203125 C6.38257813 22.87460937 7.17921875 23.42890625 8 24 C7.34 24.33 6.68 24.66 6 25 C3.46622978 23.63223879 1.0568276 22.21890658 -1.375 20.6875 C-2.71537463 19.85682721 -4.0564995 19.02736356 -5.3984375 18.19921875 C-5.99317871 17.82627686 -6.58791992 17.45333496 -7.20068359 17.0690918 C-9.09151973 15.94562213 -11.02237995 14.9610635 -13 14 C-11.63909293 9.91727879 -9.08406908 8.38274197 -5.8125 5.71875 C-3.74921094 4.03228876 -3.74921094 4.03228876 -3 1 C-2.01 0.67 -1.02 0.34 0 0 Z " fill="#619E3B" transform="translate(723,455)"/>
<path d="M0 0 C3.69287915 1.01554177 6.69548947 2.35133894 9.875 4.4375 C12.5984665 6.22363577 15.09592871 7.48112057 18.1875 8.5 C22.18534981 9.86415783 24.2543543 11.82534716 27 15 C26.01 15.495 26.01 15.495 25 16 C22.47802734 14.75244141 22.47802734 14.75244141 19.3359375 12.8515625 C18.21445312 12.17609375 17.09296875 11.500625 15.9375 10.8046875 C15.35355469 10.44729492 14.76960938 10.08990234 14.16796875 9.72167969 C12.38034508 8.62826935 10.58550353 7.54759897 8.7890625 6.46875 C2.39372465 2.59323421 2.39372465 2.59323421 0 1 C0 0.67 0 0.34 0 0 Z " fill="#5C348A" transform="translate(490,442)"/>
<path d="M0 0 C0.33 0.99 0.66 1.98 1 3 C-1.24868712 4.9390417 -3.49888861 6.87627622 -5.75 8.8125 C-6.70132813 9.63331055 -6.70132813 9.63331055 -7.671875 10.47070312 C-16.43323864 18 -16.43323864 18 -19 18 C-19.33 18.99 -19.66 19.98 -20 21 C-20 19.68 -20 18.36 -20 17 C-18.3828125 15.39453125 -18.3828125 15.39453125 -16.125 13.8125 C-10.40668396 9.62814493 -5.01456388 5.01456388 0 0 Z " fill="#60A935" transform="translate(774,306)"/>
<path d="M0 0 C0.33 0 0.66 0 1 0 C1 7.92 1 15.84 1 24 C1.66 24 2.32 24 3 24 C2.67 26.31 2.34 28.62 2 31 C-0.31 30.67 -2.62 30.34 -5 30 C-5 29.67 -5 29.34 -5 29 C-3.35 29 -1.7 29 0 29 C0 19.43 0 9.86 0 0 Z " fill="#42A9BB" transform="translate(352,352)"/>
<path d="M0 0 C2.66289788 3.99434682 3.97996655 8.26635773 5.5859375 12.7734375 C7.0151782 16.03463312 8.75518029 18.26616355 11 21 C11.75 24.3125 11.75 24.3125 12 27 C8.63774257 23.86766604 6.9138079 20.37891357 4.875 16.3125 C4.51535156 15.62994141 4.15570312 14.94738281 3.78515625 14.24414062 C1.35998802 9.43467779 0.39803411 5.37346044 0 0 Z " fill="#572F85" transform="translate(607,843)"/>
<path d="M0 0 C7.99976044 -0.20483028 15.26134446 -0.13480153 23 2 C22.01 2.99 21.02 3.98 20 5 C20 4.34 20 3.68 20 3 C13.4 2.34 6.8 1.68 0 1 C0 0.67 0 0.34 0 0 Z " fill="#5DA231" transform="translate(593,149)"/>
<path d="M0 0 C2.31 0.33 4.62 0.66 7 1 C5.68 1.33 4.36 1.66 3 2 C3.37253906 2.69867187 3.74507812 3.39734375 4.12890625 4.1171875 C4.60199219 5.02726563 5.07507813 5.93734375 5.5625 6.875 C6.03816406 7.77992188 6.51382813 8.68484375 7.00390625 9.6171875 C7.33261719 10.40351562 7.66132813 11.18984375 8 12 C7.67 12.66 7.34 13.32 7 14 C6.34 14 5.68 14 5 14 C4.87625 13.0409375 4.87625 13.0409375 4.75 12.0625 C3.70479628 7.79458483 1.85908174 3.96892333 0 0 Z " fill="#2795C9" transform="translate(133,632)"/>
<path d="M0 0 C-0.99 0.495 -0.99 0.495 -2 1 C-0.98776241 4.27030606 0.10613954 7.20441689 1.6875 10.25 C2.3371875 11.61125 2.3371875 11.61125 3 13 C2.67 13.66 2.34 14.32 2 15 C-0.64 10.05 -3.28 5.1 -6 0 C-3.50907189 -1.24546405 -2.58919267 -0.7767578 0 0 Z " fill="#523689" transform="translate(394,761)"/>
<path d="M0 0 C0 3.6987636 -0.84352062 4.35773852 -3.25 7.0625 C-4.15492188 8.10083984 -4.15492188 8.10083984 -5.078125 9.16015625 C-6.97018869 10.97146113 -8.60605599 11.9778071 -11 13 C-10.62488281 12.56429688 -10.24976563 12.12859375 -9.86328125 11.6796875 C-6.54140223 7.81392401 -3.25357073 3.92342352 0 0 Z " fill="#77CC4A" transform="translate(728,451)"/>
<path d="M0 0 C1.14926266 0.95421808 2.29430541 1.91352045 3.4375 2.875 C4.07558594 3.40867187 4.71367188 3.94234375 5.37109375 4.4921875 C7 6 7 6 8 8 C5.2980567 7.63487253 3.41609148 7.30130763 1.1875 5.6875 C0 4 0 4 0 0 Z " fill="#6DB941" transform="translate(632,285)"/>
<path d="M0 0 C1.98 0.99 3.96 1.98 6 3 C5.01 3.495 5.01 3.495 4 4 C3.01 3.67 2.02 3.34 1 3 C-1.19038423 4.37168238 -1.19038423 4.37168238 -3 6 C-3.66 5.67 -4.32 5.34 -5 5 C-3.35 3.35 -1.7 1.7 0 0 Z " fill="#3697D3" transform="translate(601,537)"/>
<path d="M0 0 C0 3.52032428 -0.70351351 4.4385343 -3 7 C-3.66 7 -4.32 7 -5 7 C-5 7.66 -5 8.32 -5 9 C-5.66 9 -6.32 9 -7 9 C-7.66 7.68 -8.32 6.36 -9 5 C-8.2575 4.9175 -7.515 4.835 -6.75 4.75 C-3.48778646 3.8603054 -2.19045122 2.51496251 0 0 Z " fill="#63A33A" transform="translate(772,499)"/>
<path d="M0 0 C0.88751953 0.19916016 0.88751953 0.19916016 1.79296875 0.40234375 C5.85446525 1.31005178 9.91374171 2.2091113 14 3 C14 3.33 14 3.66 14 4 C8.84828377 4.09038099 4.08086796 3.84681133 -1 3 C-0.67 2.01 -0.34 1.02 0 0 Z " fill="#349BBD" transform="translate(342,312)"/>
<path d="M0 0 C3.24299151 2.38957269 5.50902342 4.2047869 7 8 C5.1875 7.8125 5.1875 7.8125 3 7 C0 2.82142857 0 2.82142857 0 0 Z " fill="#28A0D5" transform="translate(215,633)"/>
<path d="M0 0 C-1.28524261 0.86380259 -2.57842419 1.71580369 -3.875 2.5625 C-4.59429688 3.03816406 -5.31359375 3.51382813 -6.0546875 4.00390625 C-6.69664062 4.33261719 -7.33859375 4.66132812 -8 5 C-8.66 4.67 -9.32 4.34 -10 4 C-4.4 -2.2 -4.4 -2.2 0 0 Z " fill="#2995CE" transform="translate(562,637)"/>
<path d="M0 0 C4 1 4 1 4 1 Z " fill="#693F9C" transform="translate(688,744)"/>
<path d="M0 0 C0.99 0 1.98 0 3 0 C2.67 0.66 2.34 1.32 2 2 C1.34 1.34 0.68 0.68 0 0 Z " fill="#4CADB9" transform="translate(436,632)"/>
<path d="M0 0 C0.99 0 1.98 0 3 0 C2.67 0.66 2.34 1.32 2 2 C1.34 1.34 0.68 0.68 0 0 Z " fill="#31ACE1" transform="translate(145,613)"/>
<path d="M0 0 C0.33 0.66 0.66 1.32 1 2 C0.01 1.67 -0.98 1.34 -2 1 C-1.34 0.67 -0.68 0.34 0 0 Z " fill="#6FBB5E" transform="translate(439,606)"/>
<path d="M0 0 C4 1 4 1 4 1 Z " fill="#43AABB" transform="translate(346,312)"/>
<path d="M0 0 C0.66 0 1.32 0 2 0 C1.67 0.66 1.34 1.32 1 2 C0.67 1.34 0.34 0.68 0 0 Z " fill="#6B3F9C" transform="translate(601,824)"/>
<path d="M0 0 C0.33 0.66 0.66 1.32 1 2 C0.34 1.67 -0.32 1.34 -1 1 C-0.67 0.67 -0.34 0.34 0 0 Z " fill="#349DD4" transform="translate(325,750)"/>
<path d="M0 0 C3 1 3 1 3 1 Z " fill="#35ABDA" transform="translate(336,680)"/>
<path d="" fill="#6C40A0" transform="translate(0,0)"/>
<path d="M0 0 C3 1 3 1 3 1 Z " fill="#45ACC7" transform="translate(465,616)"/>
<path d="M0 0 C3 1 3 1 3 1 Z " fill="#30AAE3" transform="translate(171,438)"/>
<path d="" fill="#77C348" transform="translate(0,0)"/>
<path d="" fill="#70B841" transform="translate(0,0)"/>
<path d="M0 0 C3 1 3 1 3 1 Z " fill="#35AADC" transform="translate(305,382)"/>
<path d="M0 0 C3 1 3 1 3 1 Z " fill="#3CABCD" transform="translate(336,381)"/>
<path d="M0 0 C0.66 0.66 1.32 1.32 2 2 C1.34 2 0.68 2 0 2 C0 1.34 0 0.68 0 0 Z " fill="#75BE48" transform="translate(626,283)"/>
<path d="M0 0 C3 1 3 1 3 1 Z " fill="#77C248" transform="translate(548,223)"/>
<path d="M0 0 C0.66 0 1.32 0 2 0 C1.67 0.66 1.34 1.32 1 2 C0.67 1.34 0.34 0.68 0 0 Z " fill="#6FB744" transform="translate(757,176)"/>
<path d="M0 0 C3 1 3 1 3 1 Z " fill="#6FB741" transform="translate(531,152)"/>
<path d="M0 0 C2 1 2 1 2 1 Z " fill="#643A94" transform="translate(658,901)"/>
<path d="" fill="#6C3D9E" transform="translate(0,0)"/>
<path d="" fill="#6C40A0" transform="translate(0,0)"/>
<path d="" fill="#6C41A0" transform="translate(0,0)"/>
<path d="M0 0 C2 1 2 1 2 1 Z " fill="#6A3F9C" transform="translate(559,818)"/>
<path d="" fill="#69409C" transform="translate(0,0)"/>
<path d="M0 0 C2 1 2 1 2 1 Z " fill="#2F9FD5" transform="translate(307,750)"/>
<path d="M0 0 C2 1 2 1 2 1 Z " fill="#329CD2" transform="translate(299,750)"/>
<path d="M0 0 C2 1 2 1 2 1 Z " fill="#319DD4" transform="translate(290,749)"/>
<path d="M0 0 C2 1 2 1 2 1 Z " fill="#329BD0" transform="translate(285,748)"/>
<path d="M0 0 C2 1 2 1 2 1 Z " fill="#6A3E9A" transform="translate(693,744)"/>
<path d="M0 0 C2 1 2 1 2 1 Z " fill="#2E9DD4" transform="translate(264,743)"/>
<path d="" fill="#2F9ED2" transform="translate(0,0)"/>
<path d="M0 0 C2 1 2 1 2 1 Z " fill="#319ED4" transform="translate(194,709)"/>
<path d="M0 0 C2 1 2 1 2 1 Z " fill="#35A8DA" transform="translate(322,681)"/>
<path d="M0 0 C2 1 2 1 2 1 Z " fill="#35A9DB" transform="translate(305,680)"/>
<path d="M0 0 C2 1 2 1 2 1 Z " fill="#30A7D8" transform="translate(302,680)"/>
<path d="M0 0 C2 1 2 1 2 1 Z " fill="#3BA9D4" transform="translate(369,672)"/>
<path d="" fill="#6C40A2" transform="translate(0,0)"/>
<path d="M0 0 C2 1 2 1 2 1 Z " fill="#48ADC1" transform="translate(426,640)"/>
<path d="M0 0 C2 1 2 1 2 1 Z " fill="#32AAE0" transform="translate(146,632)"/>
<path d="M0 0 C2 1 2 1 2 1 Z " fill="#4AACBA" transform="translate(449,624)"/>
<path d="M0 0 C2 1 2 1 2 1 Z " fill="#369FD9" transform="translate(588,622)"/>
<path d="M0 0 C2 1 2 1 2 1 Z " fill="#2EAAE2" transform="translate(162,613)"/>
<path d="M0 0 C2 1 2 1 2 1 Z " fill="#30AAE1" transform="translate(152,613)"/>
<path d="M0 0 C2 1 2 1 2 1 Z " fill="#6FBE61" transform="translate(428,612)"/>
<path d="M0 0 C2 1 2 1 2 1 Z " fill="#32AAE2" transform="translate(172,612)"/>
<path d="M0 0 C2 1 2 1 2 1 Z " fill="#31A7DE" transform="translate(141,612)"/>
<path d="" fill="#6D47A3" transform="translate(0,0)"/>
<path d="M0 0 C2 1 2 1 2 1 Z " fill="#30ACE2" transform="translate(189,606)"/>
<path d="" fill="#43A7CA" transform="translate(0,0)"/>
<path d="" fill="#42A5CF" transform="translate(0,0)"/>
<path d="M0 0 C2 1 2 1 2 1 Z " fill="#497FC1" transform="translate(659,569)"/>
<path d="" fill="#2E9DD0" transform="translate(0,0)"/>
<path d="M0 0 C2 1 2 1 2 1 Z " fill="#4289CA" transform="translate(643,560)"/>
<path d="M0 0 C2 1 2 1 2 1 Z " fill="#6653AA" transform="translate(627,525)"/>
<path d="" fill="#2F9FD2" transform="translate(0,0)"/>
<path d="" fill="#6A4FA9" transform="translate(0,0)"/>
<path d="M0 0 C2 1 2 1 2 1 Z " fill="#715D8B" transform="translate(709,496)"/>
<path d="" fill="#76AE54" transform="translate(0,0)"/>
<path d="M0 0 C2 1 2 1 2 1 Z " fill="#6C4BA0" transform="translate(532,469)"/>
<path d="M0 0 C2 1 2 1 2 1 Z " fill="#2FACE2" transform="translate(166,457)"/>
<path d="M0 0 C2 1 2 1 2 1 Z " fill="#31AAE1" transform="translate(147,457)"/>
<path d="M0 0 C2 1 2 1 2 1 Z " fill="#31ACE2" transform="translate(194,445)"/>
<path d="" fill="#6F5B92" transform="translate(0,0)"/>
<path d="" fill="#30A3D5" transform="translate(0,0)"/>
<path d="" fill="#6FBA43" transform="translate(0,0)"/>
<path d="" fill="#77C147" transform="translate(0,0)"/>
<path d="M0 0 C2 1 2 1 2 1 Z " fill="#694298" transform="translate(530,392)"/>
<path d="M0 0 C2 1 2 1 2 1 Z " fill="#36AADE" transform="translate(300,383)"/>
<path d="" fill="#6EB944" transform="translate(0,0)"/>
<path d="" fill="#73B54F" transform="translate(0,0)"/>
<path d="" fill="#74B64F" transform="translate(0,0)"/>
<path d="" fill="#72B84B" transform="translate(0,0)"/>
<path d="" fill="#75C148" transform="translate(0,0)"/>
<path d="" fill="#77C448" transform="translate(0,0)"/>
<path d="M0 0 C2 1 2 1 2 1 Z " fill="#31A3D7" transform="translate(240,328)"/>
<path d="M0 0 C2 1 2 1 2 1 Z " fill="#77C247" transform="translate(698,317)"/>
<path d="" fill="#76C047" transform="translate(0,0)"/>
<path d="" fill="#70BC5C" transform="translate(0,0)"/>
<path d="M0 0 C2 1 2 1 2 1 Z " fill="#78C348" transform="translate(724,311)"/>
<path d="M0 0 C2 1 2 1 2 1 Z " fill="#73C047" transform="translate(726,310)"/>
<path d="" fill="#74BC48" transform="translate(0,0)"/>
<path d="M0 0 C2 1 2 1 2 1 Z " fill="#74BE46" transform="translate(792,273)"/>
<path d="" fill="#75C049" transform="translate(0,0)"/>
<path d="" fill="#76C249" transform="translate(0,0)"/>
<path d="" fill="#6EB946" transform="translate(0,0)"/>
<path d="M0 0 C2 1 2 1 2 1 Z " fill="#76C348" transform="translate(554,222)"/>
<path d="M0 0 C2 1 2 1 2 1 Z " fill="#78C349" transform="translate(571,221)"/>
<path d="" fill="#78C548" transform="translate(0,0)"/>
<path d="" fill="#75C347" transform="translate(0,0)"/>
<path d="M0 0 C2 1 2 1 2 1 Z " fill="#6FB842" transform="translate(442,200)"/>
<path d="M0 0 C2 1 2 1 2 1 Z " fill="#70B943" transform="translate(474,176)"/>
<path d="M0 0 C2 1 2 1 2 1 Z " fill="#72B844" transform="translate(489,168)"/>
<path d="M0 0 C2 1 2 1 2 1 Z " fill="#6FB83F" transform="translate(547,149)"/>
<path d="M0 0 C2 1 2 1 2 1 Z " fill="#6CB43E" transform="translate(703,147)"/>
<path d="M0 0 C2 1 2 1 2 1 Z " fill="#6EB940" transform="translate(695,147)"/>
<path d="" fill="#040209" transform="translate(0,0)"/>
<path d="" fill="#06080F" transform="translate(0,0)"/>
<path d="" fill="#643B91" transform="translate(0,0)"/>
<path d="" fill="#653A96" transform="translate(0,0)"/>
<path d="" fill="#663A93" transform="translate(0,0)"/>
<path d="" fill="#653B94" transform="translate(0,0)"/>
<path d="" fill="#663B93" transform="translate(0,0)"/>
<path d="" fill="#653A94" transform="translate(0,0)"/>
<path d="" fill="#6C439F" transform="translate(0,0)"/>
<path d="" fill="#613D91" transform="translate(0,0)"/>
<path d="" fill="#6C409E" transform="translate(0,0)"/>
<path d="" fill="#643A93" transform="translate(0,0)"/>
<path d="" fill="#6A3D9B" transform="translate(0,0)"/>
<path d="" fill="#613A8E" transform="translate(0,0)"/>
<path d="" fill="#6D3F9E" transform="translate(0,0)"/>
<path d="" fill="#6C3F9F" transform="translate(0,0)"/>
<path d="" fill="#653D94" transform="translate(0,0)"/>
<path d="" fill="#6D409E" transform="translate(0,0)"/>
<path d="" fill="#644094" transform="translate(0,0)"/>
<path d="" fill="#6B41A0" transform="translate(0,0)"/>
<path d="" fill="#633F93" transform="translate(0,0)"/>
<path d="" fill="#663E9A" transform="translate(0,0)"/>
<path d="" fill="#6C3F9D" transform="translate(0,0)"/>
<path d="" fill="#664099" transform="translate(0,0)"/>
<path d="" fill="#633F97" transform="translate(0,0)"/>
<path d="" fill="#693E9E" transform="translate(0,0)"/>
<path d="" fill="#64479B" transform="translate(0,0)"/>
<path d="" fill="#634599" transform="translate(0,0)"/>
<path d="" fill="#6B419C" transform="translate(0,0)"/>
<path d="" fill="#683C98" transform="translate(0,0)"/>
<path d="" fill="#66459C" transform="translate(0,0)"/>
<path d="" fill="#663D99" transform="translate(0,0)"/>
<path d="" fill="#634A9E" transform="translate(0,0)"/>
<path d="" fill="#6D40A1" transform="translate(0,0)"/>
<path d="" fill="#6847A3" transform="translate(0,0)"/>
<path d="" fill="#6B3D9F" transform="translate(0,0)"/>
<path d="" fill="#6358AB" transform="translate(0,0)"/>
<path d="" fill="#6C439D" transform="translate(0,0)"/>
<path d="" fill="#339FD5" transform="translate(0,0)"/>
<path d="" fill="#349CD1" transform="translate(0,0)"/>
<path d="" fill="#339CD4" transform="translate(0,0)"/>
<path d="" fill="#359ED4" transform="translate(0,0)"/>
<path d="" fill="#329FD7" transform="translate(0,0)"/>
<path d="" fill="#379BD5" transform="translate(0,0)"/>
<path d="" fill="#3799D2" transform="translate(0,0)"/>
<path d="" fill="#3A9BD2" transform="translate(0,0)"/>
<path d="" fill="#694099" transform="translate(0,0)"/>
<path d="" fill="#6258A9" transform="translate(0,0)"/>
<path d="" fill="#309CD3" transform="translate(0,0)"/>
<path d="" fill="#329CD2" transform="translate(0,0)"/>
<path d="" fill="#683F9C" transform="translate(0,0)"/>
<path d="" fill="#3F96D1" transform="translate(0,0)"/>
<path d="" fill="#319CD1" transform="translate(0,0)"/>
<path d="" fill="#3C96D2" transform="translate(0,0)"/>
<path d="" fill="#339ED4" transform="translate(0,0)"/>
<path d="" fill="#4194D1" transform="translate(0,0)"/>
<path d="" fill="#309CD3" transform="translate(0,0)"/>
<path d="" fill="#468ECE" transform="translate(0,0)"/>
<path d="" fill="#2E9BD0" transform="translate(0,0)"/>
<path d="" fill="#615AAB" transform="translate(0,0)"/>
<path d="" fill="#488DCD" transform="translate(0,0)"/>
<path d="" fill="#5E58A7" transform="translate(0,0)"/>
<path d="" fill="#5C58AC" transform="translate(0,0)"/>
<path d="" fill="#2E9AD1" transform="translate(0,0)"/>
<path d="" fill="#4294D3" transform="translate(0,0)"/>
<path d="" fill="#329DD1" transform="translate(0,0)"/>
<path d="" fill="#673E98" transform="translate(0,0)"/>
<path d="" fill="#418FCF" transform="translate(0,0)"/>
<path d="" fill="#309CD5" transform="translate(0,0)"/>
<path d="" fill="#309DD5" transform="translate(0,0)"/>
<path d="" fill="#3F92D1" transform="translate(0,0)"/>
<path d="" fill="#3A91D1" transform="translate(0,0)"/>
<path d="" fill="#6B439F" transform="translate(0,0)"/>
<path d="" fill="#633D96" transform="translate(0,0)"/>
<path d="" fill="#399AD2" transform="translate(0,0)"/>
<path d="" fill="#2F9AD2" transform="translate(0,0)"/>
<path d="" fill="#2E9BD1" transform="translate(0,0)"/>
<path d="" fill="#309ED2" transform="translate(0,0)"/>
<path d="" fill="#329ED3" transform="translate(0,0)"/>
<path d="" fill="#6A409F" transform="translate(0,0)"/>
<path d="" fill="#3C9AD5" transform="translate(0,0)"/>
<path d="" fill="#2FA3D8" transform="translate(0,0)"/>
<path d="" fill="#389AD5" transform="translate(0,0)"/>
<path d="" fill="#3C9AD5" transform="translate(0,0)"/>
<path d="" fill="#379AD6" transform="translate(0,0)"/>
<path d="" fill="#34A7DB" transform="translate(0,0)"/>
<path d="" fill="#36A9DB" transform="translate(0,0)"/>
<path d="" fill="#36A9DA" transform="translate(0,0)"/>
<path d="" fill="#36A9DA" transform="translate(0,0)"/>
<path d="" fill="#34A9D9" transform="translate(0,0)"/>
<path d="" fill="#32A9DD" transform="translate(0,0)"/>
<path d="" fill="#36ABDA" transform="translate(0,0)"/>
<path d="" fill="#379FD7" transform="translate(0,0)"/>
<path d="" fill="#30A2D7" transform="translate(0,0)"/>
<path d="" fill="#3B9DD4" transform="translate(0,0)"/>
<path d="" fill="#633E90" transform="translate(0,0)"/>
<path d="" fill="#31A1D2" transform="translate(0,0)"/>
<path d="" fill="#30AADF" transform="translate(0,0)"/>
<path d="" fill="#37A0D8" transform="translate(0,0)"/>
<path d="" fill="#3EACD1" transform="translate(0,0)"/>
<path d="" fill="#369CD8" transform="translate(0,0)"/>
<path d="" fill="#2EA0D3" transform="translate(0,0)"/>
<path d="" fill="#359DDA" transform="translate(0,0)"/>
<path d="" fill="#309ED2" transform="translate(0,0)"/>
<path d="" fill="#43AECA" transform="translate(0,0)"/>
<path d="" fill="#46ADC9" transform="translate(0,0)"/>
<path d="" fill="#48AEC7" transform="translate(0,0)"/>
<path d="" fill="#47ADC3" transform="translate(0,0)"/>
<path d="" fill="#46AEC2" transform="translate(0,0)"/>
<path d="" fill="#309FD2" transform="translate(0,0)"/>
<path d="" fill="#663E94" transform="translate(0,0)"/>
<path d="" fill="#399ED9" transform="translate(0,0)"/>
<path d="" fill="#4BB1BE" transform="translate(0,0)"/>
<path d="" fill="#4EAFBA" transform="translate(0,0)"/>
<path d="" fill="#31ACE0" transform="translate(0,0)"/>
<path d="" fill="#30A6DE" transform="translate(0,0)"/>
<path d="" fill="#673D93" transform="translate(0,0)"/>
<path d="" fill="#36A1D8" transform="translate(0,0)"/>
<path d="" fill="#72BD63" transform="translate(0,0)"/>
<path d="" fill="#45ACC1" transform="translate(0,0)"/>
<path d="" fill="#653B91" transform="translate(0,0)"/>
<path d="" fill="#44AAC2" transform="translate(0,0)"/>
<path d="" fill="#369FD7" transform="translate(0,0)"/>
<path d="" fill="#6CBD65" transform="translate(0,0)"/>
<path d="" fill="#6E44A2" transform="translate(0,0)"/>
<path d="" fill="#3999D9" transform="translate(0,0)"/>
<path d="" fill="#31ADE5" transform="translate(0,0)"/>
<path d="" fill="#389BD7" transform="translate(0,0)"/>
<path d="" fill="#6FBD63" transform="translate(0,0)"/>
<path d="" fill="#30AAE0" transform="translate(0,0)"/>
<path d="" fill="#31ABE2" transform="translate(0,0)"/>
<path d="" fill="#3B9CD6" transform="translate(0,0)"/>
<path d="" fill="#633C94" transform="translate(0,0)"/>
<path d="" fill="#37A0D8" transform="translate(0,0)"/>
<path d="" fill="#68B76C" transform="translate(0,0)"/>
<path d="" fill="#6AB869" transform="translate(0,0)"/>
<path d="" fill="#653D96" transform="translate(0,0)"/>
<path d="" fill="#69B96E" transform="translate(0,0)"/>
<path d="" fill="#42A7CB" transform="translate(0,0)"/>
<path d="" fill="#673C95" transform="translate(0,0)"/>
<path d="" fill="#31AAE1" transform="translate(0,0)"/>
<path d="" fill="#6A44A1" transform="translate(0,0)"/>
<path d="" fill="#3F97D3" transform="translate(0,0)"/>
<path d="" fill="#40A6CD" transform="translate(0,0)"/>
<path d="" fill="#6FBD60" transform="translate(0,0)"/>
<path d="" fill="#6842A0" transform="translate(0,0)"/>
<path d="" fill="#3E96D3" transform="translate(0,0)"/>
<path d="" fill="#3DA7D0" transform="translate(0,0)"/>
<path d="" fill="#30A1D3" transform="translate(0,0)"/>
<path d="" fill="#3D98D2" transform="translate(0,0)"/>
<path d="" fill="#4094D0" transform="translate(0,0)"/>
<path d="" fill="#2FA1D5" transform="translate(0,0)"/>
<path d="" fill="#2E9FD1" transform="translate(0,0)"/>
<path d="" fill="#633E91" transform="translate(0,0)"/>
<path d="" fill="#673C95" transform="translate(0,0)"/>
<path d="" fill="#6645A2" transform="translate(0,0)"/>
<path d="" fill="#3A97D1" transform="translate(0,0)"/>
<path d="" fill="#3C91CD" transform="translate(0,0)"/>
<path d="" fill="#31A1D1" transform="translate(0,0)"/>
<path d="" fill="#3FA4D4" transform="translate(0,0)"/>
<path d="" fill="#2CA0D4" transform="translate(0,0)"/>
<path d="" fill="#3BA4D3" transform="translate(0,0)"/>
<path d="" fill="#3DA3D2" transform="translate(0,0)"/>
<path d="" fill="#3EA2D2" transform="translate(0,0)"/>
<path d="" fill="#2FA2D7" transform="translate(0,0)"/>
<path d="" fill="#74BC54" transform="translate(0,0)"/>
<path d="" fill="#3FA4D4" transform="translate(0,0)"/>
<path d="" fill="#319DD3" transform="translate(0,0)"/>
<path d="" fill="#30A0D3" transform="translate(0,0)"/>
<path d="" fill="#3FA2D1" transform="translate(0,0)"/>
<path d="" fill="#458BCC" transform="translate(0,0)"/>
<path d="" fill="#419DD2" transform="translate(0,0)"/>
<path d="" fill="#3DA3D2" transform="translate(0,0)"/>
<path d="" fill="#31A8DE" transform="translate(0,0)"/>
<path d="" fill="#6B4EA7" transform="translate(0,0)"/>
<path d="" fill="#2FA0D4" transform="translate(0,0)"/>
<path d="" fill="#6A4CA6" transform="translate(0,0)"/>
<path d="" fill="#409ED2" transform="translate(0,0)"/>
<path d="" fill="#478BCC" transform="translate(0,0)"/>
<path d="" fill="#409DD1" transform="translate(0,0)"/>
<path d="" fill="#31A2D6" transform="translate(0,0)"/>
<path d="" fill="#74BD53" transform="translate(0,0)"/>
<path d="" fill="#498ACC" transform="translate(0,0)"/>
<path d="" fill="#4496CF" transform="translate(0,0)"/>
<path d="" fill="#6B4E91" transform="translate(0,0)"/>
<path d="" fill="#4C89CB" transform="translate(0,0)"/>
<path d="" fill="#4794D1" transform="translate(0,0)"/>
<path d="" fill="#6F5390" transform="translate(0,0)"/>
<path d="" fill="#6B5291" transform="translate(0,0)"/>
<path d="" fill="#4A89C9" transform="translate(0,0)"/>
<path d="" fill="#6752AA" transform="translate(0,0)"/>
<path d="" fill="#6751A7" transform="translate(0,0)"/>
<path d="" fill="#76BC52" transform="translate(0,0)"/>
<path d="" fill="#33A7D8" transform="translate(0,0)"/>
<path d="" fill="#6553AA" transform="translate(0,0)"/>
<path d="" fill="#75BA52" transform="translate(0,0)"/>
<path d="" fill="#6657AC" transform="translate(0,0)"/>
<path d="" fill="#74BA53" transform="translate(0,0)"/>
<path d="" fill="#705A8E" transform="translate(0,0)"/>
<path d="" fill="#779565" transform="translate(0,0)"/>
<path d="" fill="#716786" transform="translate(0,0)"/>
<path d="" fill="#6A52A7" transform="translate(0,0)"/>
<path d="" fill="#79A15C" transform="translate(0,0)"/>
<path d="" fill="#694EA8" transform="translate(0,0)"/>
<path d="" fill="#77AE52" transform="translate(0,0)"/>
<path d="" fill="#706187" transform="translate(0,0)"/>
<path d="" fill="#6B4CA6" transform="translate(0,0)"/>
<path d="" fill="#32A7DA" transform="translate(0,0)"/>
<path d="" fill="#79A858" transform="translate(0,0)"/>
<path d="" fill="#6A4DA6" transform="translate(0,0)"/>
<path d="" fill="#74B850" transform="translate(0,0)"/>
<path d="" fill="#74B14E" transform="translate(0,0)"/>
<path d="" fill="#7AAE55" transform="translate(0,0)"/>
<path d="" fill="#694EA5" transform="translate(0,0)"/>
<path d="" fill="#2EA0D1" transform="translate(0,0)"/>
<path d="" fill="#76B554" transform="translate(0,0)"/>
<path d="" fill="#6B518F" transform="translate(0,0)"/>
<path d="" fill="#30A4D7" transform="translate(0,0)"/>
<path d="" fill="#2DA6DD" transform="translate(0,0)"/>
<path d="" fill="#75AD54" transform="translate(0,0)"/>
<path d="" fill="#6D4CA2" transform="translate(0,0)"/>
<path d="" fill="#79AD56" transform="translate(0,0)"/>
<path d="" fill="#6B48A1" transform="translate(0,0)"/>
<path d="" fill="#6F5691" transform="translate(0,0)"/>
<path d="" fill="#31A2D7" transform="translate(0,0)"/>
<path d="" fill="#6B4C9E" transform="translate(0,0)"/>
<path d="" fill="#72B748" transform="translate(0,0)"/>
<path d="" fill="#6D4D9F" transform="translate(0,0)"/>
<path d="" fill="#6D499F" transform="translate(0,0)"/>
<path d="" fill="#72B447" transform="translate(0,0)"/>
<path d="" fill="#30ABE2" transform="translate(0,0)"/>
<path d="" fill="#6B4B9E" transform="translate(0,0)"/>
<path d="" fill="#33AAE3" transform="translate(0,0)"/>
<path d="" fill="#32ABE0" transform="translate(0,0)"/>
<path d="" fill="#32ABE0" transform="translate(0,0)"/>
<path d="" fill="#71B647" transform="translate(0,0)"/>
<path d="" fill="#70509B" transform="translate(0,0)"/>
<path d="" fill="#71B745" transform="translate(0,0)"/>
<path d="" fill="#694497" transform="translate(0,0)"/>
<path d="" fill="#70B443" transform="translate(0,0)"/>
<path d="" fill="#30ABE3" transform="translate(0,0)"/>
<path d="" fill="#6E4D9E" transform="translate(0,0)"/>
<path d="" fill="#33AAE5" transform="translate(0,0)"/>
<path d="" fill="#31AAE3" transform="translate(0,0)"/>
<path d="" fill="#6D4597" transform="translate(0,0)"/>
<path d="" fill="#30ADE4" transform="translate(0,0)"/>
<path d="" fill="#31A7DC" transform="translate(0,0)"/>
<path d="" fill="#2BA4DA" transform="translate(0,0)"/>
<path d="" fill="#6E5596" transform="translate(0,0)"/>
<path d="" fill="#31ADE4" transform="translate(0,0)"/>
<path d="" fill="#31AAE1" transform="translate(0,0)"/>
<path d="" fill="#30ADE2" transform="translate(0,0)"/>
<path d="" fill="#31ABE1" transform="translate(0,0)"/>
<path d="" fill="#30ABE2" transform="translate(0,0)"/>
<path d="" fill="#6D5992" transform="translate(0,0)"/>
<path d="" fill="#6F5A91" transform="translate(0,0)"/>
<path d="" fill="#74BC44" transform="translate(0,0)"/>
<path d="" fill="#71B843" transform="translate(0,0)"/>
<path d="" fill="#77C147" transform="translate(0,0)"/>
<path d="" fill="#705D8E" transform="translate(0,0)"/>
<path d="" fill="#6FB844" transform="translate(0,0)"/>
<path d="" fill="#6EB844" transform="translate(0,0)"/>
<path d="" fill="#6C4598" transform="translate(0,0)"/>
<path d="" fill="#6A4396" transform="translate(0,0)"/>
<path d="" fill="#6B4398" transform="translate(0,0)"/>
<path d="" fill="#674097" transform="translate(0,0)"/>
<path d="" fill="#6C4298" transform="translate(0,0)"/>
<path d="" fill="#6B4499" transform="translate(0,0)"/>
<path d="" fill="#34ADDF" transform="translate(0,0)"/>
<path d="" fill="#6DB642" transform="translate(0,0)"/>
<path d="" fill="#32ACDE" transform="translate(0,0)"/>
<path d="" fill="#35ABDD" transform="translate(0,0)"/>
<path d="" fill="#78C247" transform="translate(0,0)"/>
<path d="" fill="#2E9ECC" transform="translate(0,0)"/>
<path d="" fill="#6DB742" transform="translate(0,0)"/>
<path d="" fill="#33ABE0" transform="translate(0,0)"/>
<path d="" fill="#34ABDD" transform="translate(0,0)"/>
<path d="" fill="#32AADD" transform="translate(0,0)"/>
<path d="" fill="#694496" transform="translate(0,0)"/>
<path d="" fill="#40AECA" transform="translate(0,0)"/>
<path d="" fill="#41ADCE" transform="translate(0,0)"/>
<path d="" fill="#32AADF" transform="translate(0,0)"/>
<path d="" fill="#3DACD3" transform="translate(0,0)"/>
<path d="" fill="#39ABD7" transform="translate(0,0)"/>
<path d="" fill="#38ABD9" transform="translate(0,0)"/>
<path d="" fill="#35ABD8" transform="translate(0,0)"/>
<path d="" fill="#6F5E8D" transform="translate(0,0)"/>
<path d="" fill="#78C347" transform="translate(0,0)"/>
<path d="" fill="#2EA3D8" transform="translate(0,0)"/>
<path d="" fill="#6DBB45" transform="translate(0,0)"/>
<path d="" fill="#75C048" transform="translate(0,0)"/>
<path d="" fill="#6EB943" transform="translate(0,0)"/>
<path d="" fill="#54B5AC" transform="translate(0,0)"/>
<path d="" fill="#2CA3D5" transform="translate(0,0)"/>
<path d="" fill="#6FB742" transform="translate(0,0)"/>
<path d="" fill="#30A3D6" transform="translate(0,0)"/>
<path d="" fill="#77C248" transform="translate(0,0)"/>
<path d="" fill="#30A3D5" transform="translate(0,0)"/>
<path d="" fill="#76C147" transform="translate(0,0)"/>
<path d="" fill="#71BD5F" transform="translate(0,0)"/>
<path d="" fill="#76C146" transform="translate(0,0)"/>
<path d="" fill="#70B843" transform="translate(0,0)"/>
<path d="" fill="#76C246" transform="translate(0,0)"/>
<path d="" fill="#75BE47" transform="translate(0,0)"/>
<path d="" fill="#31A3D2" transform="translate(0,0)"/>
<path d="" fill="#32A7D7" transform="translate(0,0)"/>
<path d="" fill="#77C547" transform="translate(0,0)"/>
<path d="" fill="#4AADBC" transform="translate(0,0)"/>
<path d="" fill="#32A5D5" transform="translate(0,0)"/>
<path d="" fill="#71BD60" transform="translate(0,0)"/>
<path d="" fill="#31A5D4" transform="translate(0,0)"/>
<path d="" fill="#76BF4A" transform="translate(0,0)"/>
<path d="" fill="#75C246" transform="translate(0,0)"/>
<path d="" fill="#73B848" transform="translate(0,0)"/>
<path d="" fill="#77C444" transform="translate(0,0)"/>
<path d="" fill="#75BD48" transform="translate(0,0)"/>
<path d="" fill="#77C348" transform="translate(0,0)"/>
<path d="" fill="#6DB546" transform="translate(0,0)"/>
<path d="" fill="#76BF46" transform="translate(0,0)"/>
<path d="" fill="#74BC47" transform="translate(0,0)"/>
<path d="" fill="#73BD46" transform="translate(0,0)"/>
<path d="" fill="#6FBA43" transform="translate(0,0)"/>
<path d="" fill="#75C544" transform="translate(0,0)"/>
<path d="" fill="#73BD4A" transform="translate(0,0)"/>
<path d="" fill="#71B844" transform="translate(0,0)"/>
<path d="" fill="#73BC46" transform="translate(0,0)"/>
<path d="" fill="#77C247" transform="translate(0,0)"/>
<path d="" fill="#74BD50" transform="translate(0,0)"/>
<path d="" fill="#74BD4A" transform="translate(0,0)"/>
<path d="" fill="#74B951" transform="translate(0,0)"/>
<path d="" fill="#6FB845" transform="translate(0,0)"/>
<path d="" fill="#6DB544" transform="translate(0,0)"/>
<path d="" fill="#74BD46" transform="translate(0,0)"/>
<path d="" fill="#6DB645" transform="translate(0,0)"/>
<path d="" fill="#73C149" transform="translate(0,0)"/>
<path d="" fill="#70C149" transform="translate(0,0)"/>
<path d="" fill="#76C248" transform="translate(0,0)"/>
<path d="" fill="#76C04A" transform="translate(0,0)"/>
<path d="" fill="#75C04A" transform="translate(0,0)"/>
<path d="" fill="#74BB4E" transform="translate(0,0)"/>
<path d="" fill="#77C14A" transform="translate(0,0)"/>
<path d="" fill="#72BB4B" transform="translate(0,0)"/>
<path d="" fill="#71B84C" transform="translate(0,0)"/>
<path d="" fill="#77BF49" transform="translate(0,0)"/>
<path d="" fill="#75C047" transform="translate(0,0)"/>
<path d="" fill="#77C549" transform="translate(0,0)"/>
<path d="" fill="#76C448" transform="translate(0,0)"/>
<path d="" fill="#76C04A" transform="translate(0,0)"/>
<path d="" fill="#76C44A" transform="translate(0,0)"/>
<path d="" fill="#75C447" transform="translate(0,0)"/>
<path d="" fill="#74C448" transform="translate(0,0)"/>
<path d="" fill="#6EBA43" transform="translate(0,0)"/>
<path d="" fill="#76C146" transform="translate(0,0)"/>
<path d="" fill="#6FBA44" transform="translate(0,0)"/>
<path d="" fill="#6FB743" transform="translate(0,0)"/>
<path d="" fill="#78C64A" transform="translate(0,0)"/>
<path d="" fill="#76C248" transform="translate(0,0)"/>
<path d="" fill="#6DB944" transform="translate(0,0)"/>
<path d="" fill="#70B944" transform="translate(0,0)"/>
<path d="" fill="#78C349" transform="translate(0,0)"/>
<path d="" fill="#71BB43" transform="translate(0,0)"/>
<path d="" fill="#74C448" transform="translate(0,0)"/>
<path d="" fill="#78C645" transform="translate(0,0)"/>
<path d="" fill="#6DBA42" transform="translate(0,0)"/>
<path d="" fill="#76C349" transform="translate(0,0)"/>
<path d="" fill="#77C14B" transform="translate(0,0)"/>
<path d="" fill="#79C84B" transform="translate(0,0)"/>
<path d="" fill="#76C346" transform="translate(0,0)"/>
<path d="" fill="#6EB943" transform="translate(0,0)"/>
<path d="" fill="#70B941" transform="translate(0,0)"/>
<path d="" fill="#6EB742" transform="translate(0,0)"/>
<path d="" fill="#75C244" transform="translate(0,0)"/>
<path d="" fill="#76C045" transform="translate(0,0)"/>
<path d="" fill="#74BF44" transform="translate(0,0)"/>
<path d="" fill="#74C345" transform="translate(0,0)"/>
<path d="" fill="#6FB53F" transform="translate(0,0)"/>
<path d="" fill="#6BB543" transform="translate(0,0)"/>
<path d="" fill="#76C547" transform="translate(0,0)"/>
<path d="" fill="#74C146" transform="translate(0,0)"/>
<path d="" fill="#6EB741" transform="translate(0,0)"/>
<path d="" fill="#6FB544" transform="translate(0,0)"/>
<path d="" fill="#77C144" transform="translate(0,0)"/>
<path d="" fill="#76C446" transform="translate(0,0)"/>
<path d="" fill="#73B842" transform="translate(0,0)"/>
<path d="" fill="#70B940" transform="translate(0,0)"/>
<path d="" fill="#72BA46" transform="translate(0,0)"/>
<path d="" fill="#70BA41" transform="translate(0,0)"/>
<path d="" fill="#75BC45" transform="translate(0,0)"/>
<path d="" fill="#6EB741" transform="translate(0,0)"/>
<path d="" fill="#74BC43" transform="translate(0,0)"/>
<path d="" fill="#6CB341" transform="translate(0,0)"/>
<path d="" fill="#74BD44" transform="translate(0,0)"/>
<path d="" fill="#70B840" transform="translate(0,0)"/>
<path d="" fill="#6DB541" transform="translate(0,0)"/>
<path d="" fill="#6EB63D" transform="translate(0,0)"/>
<path d="" fill="#70B93E" transform="translate(0,0)"/>
<path d="" fill="#70B942" transform="translate(0,0)"/>
<path d="" fill="#6EB943" transform="translate(0,0)"/>
<path d="" fill="#70B841" transform="translate(0,0)"/>
<path d="" fill="#6EB742" transform="translate(0,0)"/>
<path d="" fill="#6EB943" transform="translate(0,0)"/>
<path d="" fill="#71B943" transform="translate(0,0)"/>
<path d="" fill="#6FB93F" transform="translate(0,0)"/>
<path d="" fill="#6DB63F" transform="translate(0,0)"/>
<path d="" fill="#6EB740" transform="translate(0,0)"/>
<path d="" fill="#6FB841" transform="translate(0,0)"/>
<path d="" fill="#6AB23D" transform="translate(0,0)"/>
<path d="" fill="#08150E" transform="translate(0,0)"/>
</svg>
